<svg xmlns="http://www.w3.org/2000/svg" viewBox="0 0 620.9 87.6"><path d="m0 12.5 35.7-5v34.6H0M40 6.9 87.3 0v41.8H40m-40 4h35.7v34.5L0 75.3m40-29.1h47.3v41.4L40 80.9" fill="#00188f"/><g fill="#00188f"><path d="M180.6 18.3 166 69.7H159l-10.6-37.5a23.5 23.5 0 0 1-.8-5.3h-.1a26.5 26.5 0 0 1-1 5.2L136 69.7h-7l-15-51.4h6.6l11 39.4a25.9 25.9 0 0 1 .8 5.2h.2a30.5 30.5 0 0 1 1-5.2L145 18.3h5.8L161.6 58a29 29 0 0 1 .8 4.8h.2a28.8 28.8 0 0 1 1-5L174 18.4ZM189.5 23.7a3.7 3.7 0 0 1-2.7-1 3.6 3.6 0 0 1-1.1-2.8 3.8 3.8 0 0 1 3.8-3.8 3.7 3.7 0 0 1 2.7 1 3.8 3.8 0 0 1 0 5.5 3.7 3.7 0 0 1-2.7 1.1Zm2.8 46h-5.8V33h5.8ZM233.8 69.7h-5.9v-21q0-11.6-8.5-11.6a9.3 9.3 0 0 0-7.3 3.3 12.3 12.3 0 0 0-2.9 8.4v20.9h-5.9V33h5.9v6.1h.1a13.2 13.2 0 0 1 12-7q6.1 0 9.3 4 3.2 3.8 3.2 11.2ZM275.3 69.7h-5.9v-6.2h-.1q-4.1 7-12.6 7a13.8 13.8 0 0 1-11.1-4.8q-4.1-5-4.1-13.5 0-9 4.6-14.6a15.1 15.1 0 0 1 12.2-5.4q7.5 0 11 5.9h.1V15.4h5.9Zm-5.9-16.6v-5.4a10.5 10.5 0 0 0-3-7.5A9.9 9.9 0 0 0 259 37a10.1 10.1 0 0 0-8.4 4q-3.1 3.9-3.1 10.8 0 6.4 3 10a9.7 9.7 0 0 0 7.9 3.7 10 10 0 0 0 8-3.5 13.2 13.2 0 0 0 3-9ZM301.7 70.6q-8.2 0-13-5.2-4.9-5.1-4.9-13.6 0-9.3 5-14.4t13.7-5.2q8.2 0 12.8 5 4.6 5 4.6 14 0 8.8-5 14.1-4.9 5.3-13.2 5.3ZM302 37a11.2 11.2 0 0 0-9 3.9q-3.2 3.8-3.2 10.6 0 6.5 3.3 10.3a11.3 11.3 0 0 0 9 3.7q5.6 0 8.6-3.7 3.1-3.7 3.1-10.5t-3-10.6q-3.1-3.7-8.8-3.7ZM374.6 33l-11 36.7h-6L350 43.4a17.1 17.1 0 0 1-.6-3.4h-.1a16 16 0 0 1-.8 3.4l-8.2 26.3h-5.9l-11-36.7h6.1l7.6 27.6a16.6 16.6 0 0 1 .5 3.3h.3a15.4 15.4 0 0 1 .6-3.4L347 33h5.4l7.6 27.7a19.7 19.7 0 0 1 .5 3.3h.3a15.2 15.2 0 0 1 .6-3.3l7.4-27.7ZM378.3 68.4V62a17.4 17.4 0 0 0 10.6 3.5q7.7 0 7.7-5.1a4.3 4.3 0 0 0-.7-2.5 6.2 6.2 0 0 0-1.7-1.8 12.5 12.5 0 0 0-2.7-1.4l-3.3-1.4a47.1 47.1 0 0 1-4.3-1.9 14.2 14.2 0 0 1-3-2.2 8.8 8.8 0 0 1-1.9-2.8 10.2 10.2 0 0 1-.6-3.7 8.7 8.7 0 0 1 1.2-4.6 10.2 10.2 0 0 1 3.1-3.3 14.5 14.5 0 0 1 4.5-2 20.1 20.1 0 0 1 5.2-.7 21 21 0 0 1 8.6 1.6v6a16.6 16.6 0 0 0-9.4-2.7 10.4 10.4 0 0 0-3 .4 7.2 7.2 0 0 0-2.2 1 5 5 0 0 0-1.5 1.7 4.3 4.3 0 0 0-.5 2 5.2 5.2 0 0 0 .5 2.5 5.5 5.5 0 0 0 1.6 1.7 11.6 11.6 0 0 0 2.4 1.3l3.2 1.4a42.5 42.5 0 0 1 4.4 1.9 14.2 14.2 0 0 1 3.3 2.2 8.3 8.3 0 0 1 2 2.9 10 10 0 0 1-.4 8.5 10.1 10.1 0 0 1-3.2 3.3 14.7 14.7 0 0 1-4.6 2 22.8 22.8 0 0 1-5.5.7 20.8 20.8 0 0 1-9.8-2.2ZM428.3 67.6v-7a14 14 0 0 0 2.9 1.9 26.2 26.2 0 0 0 3.6 1.4 31.2 31.2 0 0 0 3.7 1 21 21 0 0 0 3.6.3q5.5 0 8.2-2a7 7 0 0 0 2.8-6 6.9 6.9 0 0 0-1-3.7 9.8 9.8 0 0 0-2.4-2.7 23 23 0 0 0-3.9-2.5l-4.7-2.5q-2.7-1.3-5-2.7a21.7 21.7 0 0 1-4-3.1 13.2 13.2 0 0 1-2.8-3.8 12.1 12.1 0 0 1-1-5A11.7 11.7 0 0 1 430 25a13.2 13.2 0 0 1 4-4.3 18.4 18.4 0 0 1 5.7-2.5 26.4 26.4 0 0 1 6.6-.8q7.6 0 11 1.8v6.8q-4.5-3.2-11.6-3.2a18.4 18.4 0 0 0-4 .4 10.8 10.8 0 0 0-3.5 1.4 7.8 7.8 0 0 0-2.5 2.4 6.4 6.4 0 0 0-1 3.6 7.5 7.5 0 0 0 .8 3.4 8.6 8.6 0 0 0 2.1 2.6A22 22 0 0 0 441 39l4.8 2.4 5.2 2.9a24 24 0 0 1 4.4 3.3 14.5 14.5 0 0 1 2.9 4 11.2 11.2 0 0 1 1.1 5.1 12.9 12.9 0 0 1-1.5 6.5 12 12 0 0 1-4 4.2 17 17 0 0 1-5.8 2.4 31.2 31.2 0 0 1-7 .8 26 26 0 0 1-3-.3 34 34 0 0 1-3.6-.5 30.8 30.8 0 0 1-3.6-1 11.5 11.5 0 0 1-2.6-1.2ZM497.4 52.8h-25.9q.2 6.2 3.3 9.5t8.7 3.3a18 18 0 0 0 11.4-4V67q-4.8 3.5-12.8 3.5-7.8 0-12.2-5-4.5-5-4.5-14.1 0-8.6 4.9-14a15.6 15.6 0 0 1 12-5.3q7.3 0 11.2 4.6t4 13Zm-6-5q0-5-2.5-7.9a8.3 8.3 0 0 0-6.7-2.8 9.5 9.5 0 0 0-7 3 13.5 13.5 0 0 0-3.6 7.7ZM524.6 39a7.2 7.2 0 0 0-4.5-1.2 7.5 7.5 0 0 0-6.3 3.5q-2.5 3.6-2.5 9.7v18.7h-5.9V33h6v7.6a12.7 12.7 0 0 1 3.9-6 8.7 8.7 0 0 1 5.8-2.2 9.6 9.6 0 0 1 3.5.5ZM558.9 33l-14.6 36.7h-5.8L524.6 33h6.4l9.4 26.7a24 24 0 0 1 1.3 5.1 24.2 24.2 0 0 1 1.2-5l9.8-26.8ZM593.7 52.8h-25.9q.2 6.2 3.3 9.5t8.7 3.3a18 18 0 0 0 11.4-4V67q-4.9 3.5-12.8 3.5-7.8 0-12.2-5-4.5-5-4.5-14.1 0-8.6 4.9-14a15.6 15.6 0 0 1 12-5.3q7.2 0 11.2 4.6t4 13Zm-6-5q0-5-2.5-7.9a8.3 8.3 0 0 0-6.7-2.8 9.5 9.5 0 0 0-7 3 13.5 13.5 0 0 0-3.6 7.7ZM620.9 39a7.2 7.2 0 0 0-4.5-1.2 7.5 7.5 0 0 0-6.3 3.5q-2.5 3.6-2.5 9.7v18.7h-5.9V33h6v7.6a12.7 12.7 0 0 1 3.9-6 8.7 8.7 0 0 1 5.8-2.2 9.6 9.6 0 0 1 3.5.5Z"/></g></svg>